<mxfile host="app.diagrams.net" modified="2021-03-08T00:48:19.367Z" agent="5.0 (Windows NT 10.0; Win64; x64) AppleWebKit/537.36 (KHTML, like Gecko) Chrome/88.0.4324.182 Safari/537.36" etag="5fVvmsFYCBsNlAvDcFpp" version="14.4.3" type="github">
  <diagram id="jlLkAD-cMyA8wA-HAwey" name="第 1 页">
    <mxGraphModel dx="2062" dy="1132" grid="1" gridSize="10" guides="1" tooltips="1" connect="1" arrows="1" fold="1" page="1" pageScale="1" pageWidth="2339" pageHeight="3300" math="0" shadow="0">
      <root>
        <mxCell id="0" />
        <mxCell id="1" parent="0" />
        <mxCell id="EOj2BOAW-Lx1fA6XS-lP-1" value="" style="rounded=0;whiteSpace=wrap;html=1;fillColor=#f5f5f5;strokeColor=#666666;fontColor=#333333;" vertex="1" parent="1">
          <mxGeometry x="390" y="400" width="550" height="440" as="geometry" />
        </mxCell>
        <mxCell id="EOj2BOAW-Lx1fA6XS-lP-2" value="toYYYYMMDD(20210101)" style="text;html=1;strokeColor=none;fillColor=none;align=center;verticalAlign=middle;whiteSpace=wrap;rounded=0;" vertex="1" parent="1">
          <mxGeometry x="560" y="860" width="170" height="20" as="geometry" />
        </mxCell>
        <mxCell id="EOj2BOAW-Lx1fA6XS-lP-3" value="" style="rounded=0;whiteSpace=wrap;html=1;fillColor=#f5f5f5;strokeColor=#666666;fontColor=#333333;" vertex="1" parent="1">
          <mxGeometry x="980" y="400" width="550" height="440" as="geometry" />
        </mxCell>
        <mxCell id="EOj2BOAW-Lx1fA6XS-lP-4" value="toYYYYMMDD(20210102)" style="text;html=1;strokeColor=none;fillColor=none;align=center;verticalAlign=middle;whiteSpace=wrap;rounded=0;" vertex="1" parent="1">
          <mxGeometry x="1170" y="860" width="170" height="20" as="geometry" />
        </mxCell>
        <mxCell id="EOj2BOAW-Lx1fA6XS-lP-6" value="0-128" style="rounded=0;whiteSpace=wrap;html=1;" vertex="1" parent="1">
          <mxGeometry x="410" y="440" width="120" height="60" as="geometry" />
        </mxCell>
        <mxCell id="EOj2BOAW-Lx1fA6XS-lP-7" value="129-256" style="rounded=0;whiteSpace=wrap;html=1;" vertex="1" parent="1">
          <mxGeometry x="550" y="440" width="120" height="60" as="geometry" />
        </mxCell>
        <mxCell id="EOj2BOAW-Lx1fA6XS-lP-8" value="257-394" style="rounded=0;whiteSpace=wrap;html=1;" vertex="1" parent="1">
          <mxGeometry x="690" y="440" width="120" height="60" as="geometry" />
        </mxCell>
      </root>
    </mxGraphModel>
  </diagram>
</mxfile>
